<?xml version="1.0" encoding="UTF-8" standalone="no"?>
<svg
   xmlns:dc="http://purl.org/dc/elements/1.1/"
   xmlns:cc="http://creativecommons.org/ns#"
   xmlns:rdf="http://www.w3.org/1999/02/22-rdf-syntax-ns#"
   xmlns:svg="http://www.w3.org/2000/svg"
   xmlns="http://www.w3.org/2000/svg"
   viewBox="0 0 1280 720"
   height="720"
   width="1280"
   xml:space="preserve"
   id="svg2"
   version="1.1"><metadata
     id="metadata8"><rdf:RDF><cc:Work
         rdf:about=""><dc:format>image/svg+xml</dc:format><dc:type
           rdf:resource="http://purl.org/dc/dcmitype/StillImage" /></cc:Work></rdf:RDF></metadata><defs
     id="defs6" /><g
     transform="matrix(1.3333333,0,0,-1.3333333,0,720)"
     id="g10"><path
       id="path12"
       style="fill:#ffffff;fill-opacity:1;fill-rule:nonzero;stroke:none"
       d="m 261.79,211.46 c 0,-12.1 -2.44,-22.9 -7.31,-32.42 -4.87,-9.52 -11.56,-17.42 -20.07,-23.69 -9.86,-7.39 -20.69,-12.66 -32.51,-15.79 -11.81,-3.14 -26.79,-4.7 -44.93,-4.7 H 47.773 v 250.13 h 97.097 c 20.16,0 34.91,-0.67 44.26,-2.02 9.36,-1.34 18.62,-4.31 27.81,-8.9 9.52,-4.82 16.6,-11.28 21.25,-19.4 4.65,-8.12 6.97,-17.39 6.97,-27.8 0,-12.1 -3.19,-22.77 -9.58,-32.01 -6.38,-9.24 -15.4,-16.43 -27.04,-21.58 v -1.35 c 16.35,-3.24 29.31,-9.96 38.89,-20.16 9.57,-10.19 14.36,-23.63 14.36,-40.31 z m -82.65,102.81 c 0,4.14 -1.04,8.28 -3.11,12.43 -2.07,4.14 -5.74,7.22 -11,9.24 -4.71,1.79 -10.56,2.77 -17.56,2.94 -7,0.16 -16.82,0.25 -29.48,0.25 h -6.05 v -52.92 h 10.08 c 10.19,0 18.87,0.17 26.04,0.51 7.17,0.33 12.82,1.45 16.97,3.36 5.82,2.57 9.63,5.9 11.42,9.99 1.79,4.09 2.69,8.82 2.69,14.2 z m 15.62,-101.8 c 0,7.95 -1.53,14.08 -4.61,18.39 -3.07,4.31 -8.3,7.53 -15.67,9.66 -5.03,1.46 -11.96,2.24 -20.79,2.35 -8.83,0.11 -18.05,0.17 -27.66,0.17 h -14.09 v -62.32 h 4.7 c 18.1,0 31.07,0.05 38.89,0.16 7.83,0.12 15.04,1.57 21.63,4.37 6.71,2.8 11.32,6.53 13.83,11.17 2.52,4.65 3.77,10 3.77,16.05 z m 172.38,-77.61 h -60.65 v 188.65 h 60.65 z m 1.68,215.52 h -64.01 v 45.86 h 64.01 z M 607.54,156.53 c 0,-17.7 -2.52,-32.59 -7.56,-44.69 -5.04,-12.095 -12.1,-21.558 -21.17,-28.389 -9.07,-6.944 -20.02,-11.956 -32.84,-15.035 -12.82,-3.08 -27.3,-4.62 -43.43,-4.62 -13.1,0 -26.01,0.784 -38.72,2.352 -12.71,1.568 -23.71,3.472 -33.01,5.711 v 47.201 h 7.38 c 7.38,-2.91 16.39,-5.57 27.01,-7.98 10.62,-2.4 20.13,-3.61 28.52,-3.61 11.18,0 20.27,1.04 27.26,3.11 6.99,2.07 12.33,5.01 16.01,8.82 3.47,3.58 5.99,8.18 7.55,13.78 1.57,5.59 2.35,12.31 2.35,20.15 v 3.53 c -7.27,-5.93 -15.32,-10.64 -24.16,-14.11 -8.83,-3.47 -18.68,-5.21 -29.53,-5.21 -26.4,0 -46.75,7.95 -61.07,23.86 -14.32,15.9 -21.48,40.09 -21.48,72.57 0,15.57 2.19,29 6.55,40.32 4.36,11.31 10.51,21.16 18.45,29.56 7.39,7.84 16.47,13.94 27.27,18.31 10.79,4.37 21.84,6.55 33.14,6.55 10.17,0 19.43,-1.2 27.76,-3.61 8.34,-2.41 15.91,-5.74 22.74,-9.99 l 2.19,8.4 h 58.79 z m -60.65,37.79 v 85.51 c -3.46,1.45 -7.71,2.6 -12.74,3.44 -5.02,0.84 -9.55,1.26 -13.57,1.26 -15.87,0 -27.77,-4.56 -35.7,-13.69 -7.94,-9.13 -11.9,-21.86 -11.9,-38.22 0,-18.14 3.38,-30.79 10.14,-37.96 6.76,-7.17 16.79,-10.75 30.08,-10.75 6.04,0 11.96,0.95 17.77,2.85 5.81,1.91 11.12,4.43 15.92,7.56 z m 178.45,-59.46 h -60.65 v 188.65 h 60.65 z m 1.68,215.52 h -64.01 v 45.86 h 64.01 z M 902.91,136.52 c -6.5,-1.68 -13.38,-2.99 -20.66,-3.94 -7.28,-0.95 -16.19,-1.42 -26.71,-1.42 -23.52,0 -41.02,4.76 -52.5,14.28 -11.48,9.52 -17.22,25.81 -17.22,48.88 v 88.2 h -24.86 v 40.99 h 24.86 v 53.92 h 60.64 v -53.92 h 56.45 v -40.99 h -56.45 v -66.96 c 0,-6.62 0.06,-12.4 0.17,-17.33 0.11,-4.94 1.01,-9.37 2.68,-13.3 1.57,-3.92 4.33,-7.03 8.29,-9.33 3.97,-2.3 9.75,-3.45 17.34,-3.45 3.12,0 7.23,0.67 12.31,2.01 5.08,1.35 8.62,2.58 10.63,3.7 h 5.03 z" /></g></svg>