
<svg xmlns="http://www.w3.org/2000/svg" version="1.1" xmlns:xlink="http://www.w3.org/1999/xlink" preserveAspectRatio="none" x="0px" y="0px" width="1024px" height="1024px" viewBox="0 0 1024 1024">
<defs>
<linearGradient id="Gradient_1" gradientUnits="userSpaceOnUse" x1="82.0625" y1="76.35" x2="108.0375" y2="96.55000000000001" spreadMethod="pad">
<stop  offset="0%" stop-color="#FC3D1D" stop-opacity="0.2"/>

<stop  offset="100%" stop-color="#FD8D25" stop-opacity="0.2"/>
</linearGradient>

<g id="Layer0_0_MEMBER_0_MEMBER_0_FILL">
<path fill="#FEDD4F" stroke="none" d="
M 295.1 233.15
Q 294.8 230.6 294.3 230.4 293.95 230.25 292.55 232.05 291.15 233.85 290.75 233.7 288.5 233.05 288.1 232.95 287.85 232.9 287.75 229.35 287.65 225.75 287.35 225.7 286.8 225.65 285.35 228.95 283.8 232.25 283.3 232.2
L 281 232.15
Q 280.5 232.15 279.15 229.05 277.85 226 277.4 226 276.5 226.1 275.1 229.5 273.65 233 272.85 233.2 270.85 233.8 269.9 234.2 269.35 234.4 267.05 232 264.75 229.65 264.25 229.95 263.65 230.25 263.8 233.75 263.95 237.3 263.4 237.65 262.25 238.45 261.85 238.85 261.55 239.05 258.6 237.65 255.65 236.2 255.35 236.45 254.85 236.9 256.3 239.8 257.75 242.75 257.35 243.25 256.5 244.2 255.5 245.65 255.35 245.9 250.7 243.15 246 240.45 245.85 240.65 245.65 241.05 249.6 245 253.55 249 253.35 249.4
L 252.25 251.9
Q 252.15 252.25 249.35 252.3 246.55 252.35 246.45 252.75 246.35 253.15 248.65 254.6 251 256.05 250.9 256.45 250.8 256.9 247.65 257.1 244.55 257.3 244.5 257.7 244.45 258 247.35 259.3 250.3 260.55 250.3 260.85
L 250.2 262.9
Q 250.2 263.1 247.4 263.95 244.65 264.75 244.65 264.95 244.65 265.35 247.5 265.7 250.4 266.1 250.45 266.45
L 250.7 268.25
Q 250.8 268.7 246.9 271.15 243.05 273.6 243.15 274 243.25 274.35 247.5 273.45 251.75 272.55 251.85 272.85
L 252.3 273.95
Q 252.7 275.1 253.2 276.05 253.4 276.45 250.7 278.6 248.05 280.75 248.25 281.1 248.4 281.4 251.8 280.5 255.15 279.6 255.3 279.85
L 256.75 281.8
Q 257 282.15 255.5 285.1 254 288 254.3 288.35 254.6 288.65 257.25 286.95 259.9 285.3 260.15 285.55
L 262.7 287.65
Q 262.85 287.75 261.85 291.55 260.8 295.35 260.95 295.45 261.8 296.05 264.8 293.4 267.85 290.7 268.75 291.1 269.85 291.6 271.1 292 271.4 292.1 271.15 295.7 270.85 299.3 271.2 299.35 271.75 299.5 273.85 296.4 275.95 293.25 276.5 293.3 278.55 293.65 281 293.65 281.6 293.65 283.3 298.15 284.95 302.65 285.55 302.55 285.8 302.5 285.95 297.9 286.05 293.25 286.35 293.2
L 289.15 292.55
Q 289.4 292.5 291.45 295.3 293.5 298.1 293.7 298 294.15 297.85 293.4 294.6 292.7 291.35 293.1 291.15 294.55 290.55 296.15 289.65 296.95 289.2 300.45 290.45 303.8 291.7 304.55 291.05 304.9 290.75 303.65 287.85 302.4 284.95 302.7 284.65 303.8 283.55 304.95 282.15 305.25 281.75 310.8 282.85 316.35 283.95 316.65 283.5 316.95 283 312.65 280.05 308.3 277.1 308.55 276.55 310 273.45 310.65 270.95 310.75 270.55 313.95 270.75 317.2 270.95 317.25 270.55 317.35 269.95 314.5 267.75 311.65 265.55 311.65 264.95
L 311.75 262.9
Q 311.75 262.2 315.25 260.15 318.7 258.1 318.6 257.4 318.55 256.85 314.75 256.4 310.95 255.95 310.8 255.45 310.45 253.9 310.1 253 309.45 251.05 308.7 249.55 308.45 249 310.75 245.75 313.05 242.55 312.7 242 312.45 241.65 309 243.05 305.6 244.45 305.3 244.05 303.8 242.2 302.65 241.05 302.4 240.8 304.2 236.25 306.05 231.7 305.75 231.45 304.95 230.8 300.9 233.6 296.75 236.45 295.85 235.95 295.4 235.7 295.1 233.15 Z"/>
</g>

<g id="Layer0_0_MEMBER_0_MEMBER_1_MEMBER_0_FILL">
<path fill="#FFF7C5" stroke="none" d="
M 292.6 244.1
Q 295.1 244.1 297.8 243.15 290.45 236.95 281 236.95 276.25 236.95 271.65 238.7 275.8 241.9 281.7 243.3 287 244.55 292.6 244.1 Z"/>
</g>

<g id="Layer0_0_MEMBER_0_MEMBER_1_MEMBER_1_FILL">
<path fill="#FEF2A1" stroke="none" d="
M 297.8 243.15
Q 295.1 244.1 292.6 244.1 287 244.55 281.7 243.3 275.8 241.9 271.65 238.7 267.1 240.45 263.45 243.8 271.75 250.4 280.55 251.75 290.45 253.2 299.95 247.8 300.5 247.4 301.45 247 299.7 244.75 297.8 243.15 Z"/>
</g>

<g id="Layer0_0_MEMBER_0_MEMBER_1_MEMBER_2_FILL">
<path fill="#FEEA7B" stroke="none" d="
M 266.85 254.85
Q 271.95 259.15 275 260.25 282.95 263.65 291.15 261.55 297.15 260 305.55 254.55 304.15 250.45 301.45 247 300.5 247.4 299.95 247.8 290.45 253.2 280.55 251.75 271.75 250.4 263.45 243.8 260.7 246.35 258.75 249.55 261.85 250.55 266.85 254.85 Z"/>
</g>

<g id="Layer0_0_MEMBER_0_MEMBER_1_MEMBER_3_FILL">
<path fill="#FDBD2E" stroke="none" d="
M 279.45 285.2
Q 273.7 283.5 268.4 280.05 266.15 278.85 262.4 275.7 258.5 272.45 256.45 271.25 259.1 279 265.75 283.85 272.55 288.8 281 288.8 286.3 288.8 291.2 286.7 285.5 287.05 279.45 285.2 Z"/>
</g>

<g id="Layer0_0_MEMBER_0_MEMBER_1_MEMBER_4_FILL">
<path fill="#FEC444" stroke="none" d="
M 268.4 280.05
Q 273.7 283.5 279.45 285.2 285.5 287.05 291.2 286.7 296.6 284.35 300.5 279.9 304.45 275.4 306 269.7 295.65 276.2 282.8 274.9 269.7 273.6 259.6 264.65 258.1 263.55 255.05 263.9 255.3 267.9 256.45 271.25 258.5 272.45 262.4 275.7 266.15 278.85 268.4 280.05 Z"/>
</g>

<g id="Layer0_0_MEMBER_0_MEMBER_1_MEMBER_5_FILL">
<path fill="#FEDD4F" stroke="none" d="
M 255.05 263.9
Q 258.1 263.55 259.6 264.65 269.7 273.6 282.8 274.9 295.65 276.2 306 269.7 306.9 266.4 306.9 262.9 306.9 258.7 305.55 254.55 297.15 260 291.15 261.55 282.95 263.65 275 260.25 271.95 259.15 266.85 254.85 261.85 250.55 258.75 249.55 255.05 255.7 255.05 262.9
L 255.05 263.9 Z"/>
</g>

<g id="Layer0_0_MEMBER_0_MEMBER_2_FILL">
<path fill="#FD742A" fill-opacity="0.6980392156862745" stroke="none" d="
M 10.55 7.15
Q 12.25 4.7 13.2 3.15 15.1 0.1 11.75 0 9.75 -0.05 7 3 5.6 4.55 4.05 6.45 3.15 7 1.6 9.55 -0.05 12.15 0 13.05 0.05 15.1 2.95 14.35 4.5 13.95 6.8 13.15 8.25 13.15 9.45 12.6 10.45 12.2 10.6 10.15 10.55 7.85 10.55 7.15 Z"/>
</g>

<g id="Layer0_0_MEMBER_0_MEMBER_3_FILL">
<path fill="#FD742A" fill-opacity="0.6980392156862745" stroke="none" d="
M 11.85 6.1
Q 12.4 5.7 16.45 5.85 19.8 5.6 17.8 2.95 16.5 1.25 13 0.5 10.75 0 8.3 0 7.1 0 4.3 0.55 1.25 1.15 0.65 1.65 -0.9 3 1.5 3.75 4.85 4.8 4.9 4.85 5.2 5.25 4.9 7 4.9 8.6 6.95 8.75 8 8.8 9.65 7.8 10.35 7.35 11.85 6.1 Z"/>
</g>

<g id="Layer0_0_MEMBER_0_MEMBER_4_FILL">
<path fill="#FFFFFF" fill-opacity="0.6980392156862745" stroke="none" d="
M 3.8 0.2
Q 2.55 0.65 1.4 1.95 0.3 3.25 0.05 4.55 -0.2 5.9 0.55 6.55 1.3 7.2 2.6 6.75 3.85 6.3 5 5 6.1 3.7 6.35 2.35 6.6 1 5.85 0.35 5.1 -0.3 3.8 0.2 Z"/>
</g>

<g id="Layer0_0_MEMBER_0_MEMBER_5_FILL">
<path fill="#FD742A" fill-opacity="0.6980392156862745" stroke="none" d="
M 15.1 1.75
Q 13.55 3.45 12.9 4.1 11.75 5.15 9.9 4.65 8.1 4.2 7.9 3 7.55 0.95 7.4 0.7 6.8 -0.3 5.3 0.1
L 3.9 0.7
Q 3.5 0.7 3 1.6 2.4 2.65 2 4.45
L 0.35 7.85
Q -0.5 9.6 0.85 10.9 2 12 3.95 14.25 5.65 16.05 7.05 16.1 9.05 16.2 10.95 15.45 13.25 14.5 14.9 12.5 18.8 7.6 18.05 5 17.3 2.3 17.15 2.05 16.4 0.7 15.1 1.75 Z"/>
</g>

<g id="Layer0_0_MEMBER_0_MEMBER_6_FILL">
<path fill="#FD742A" fill-opacity="0.6980392156862745" stroke="none" d="
M 11 9.7
Q 12.75 10.9 13.75 11.2 15.8 11.75 16.8 10.8 17.8 9.9 18.35 7.1 18.85 4.9 17.5 3.95 16 3.3 15.75 2.9 15.15 1.9 10.55 0.3 8.9 -0.25 8.3 0.25 7.35 1.05 5.9 1.1 3.55 1.2 1.95 1.8 0.6 2.8 0.25 3.9 0.1 4.6 0.05 6 -0.15 7.2 0.2 9 0.55 10.95 1.3 11.75 1.8 12.35 3.9 11.05 6.6 9.35 8.05 9.15 9.8 8.9 11 9.7 Z"/>
</g>

<g id="Layer0_0_MEMBER_0_MEMBER_7_FILL">
<path fill="#FD742A" fill-opacity="0.6980392156862745" stroke="none" d="
M 14.6 2.05
Q 13.4 1.85 12.15 1.6 11.45 1.45 9.35 0.55 7.85 -0.1 5.9 0.05 5.7 0.05 3.6 1.05 2.6 1.55 1.6 2.05 1.05 2.3 0.6 2.75 -0.35 3.75 0.15 5.1 0.55 6.2 1.1 8.2 1.7 9.9 2.75 10.9 2.85 11 4.3 14.2 5.15 16.1 7.4 15.3 12.35 13.5 12.6 13.4 14.75 12.3 13.5 10.9 12.05 9.25 11.4 8.75 10.65 8.15 8.65 7.15 5.55 5.65 7.5 3.45 7.9 2.95 10.1 4.9 12.3 6.85 13.15 6.25 17.2 3.35 16 2.65 15.25 2.2 14.6 2.05 Z"/>
</g>

<g id="Layer0_0_MEMBER_0_MEMBER_8_FILL">
<path fill="#FD742A" fill-opacity="0.6980392156862745" stroke="none" d="
M 14.65 0.15
Q 12.65 0.65 11.3 2.35 9.6 4.5 5.55 7.35 5.15 7 4.55 6.95 3.4 6.85 2.5 8.25 1.75 9.4 0.4 10.8 -0.35 11.75 0.45 12.3 1.6 13.1 2 13.65 2.55 14.3 2.35 14.95 2.25 15.4 1.4 16.2 1 16.95 2.95 17.65 4.55 18.2 7.1 19.65 9.3 20.6 10.95 19.8 13 18.8 15.25 15.9 17.5 13.1 18.45 10.4 19.5 7.45 19.55 5 19.65 2.15 18.2 0.9 16.75 -0.4 14.65 0.15 Z"/>
</g>

<g id="Layer0_0_MEMBER_0_MEMBER_9_FILL">
<path fill="#FD742A" fill-opacity="0.6980392156862745" stroke="none" d="
M 13.65 7.7
Q 12.75 5.5 10.8 3.3 8.85 1.1 7 0.25 5.1 -0.65 3.05 1.7 2.1 2.8 0.7 4.2 -0.05 5.3 0.45 6.45 0.65 6.95 0.1 9 -0.25 10.25 1.8 10.55 4.05 10.9 5.5 12.2 6.35 13.05 6.75 14.05 6.95 14.45 7.3 16.75 7.8 18.75 8.9 18.25 10.5 17.55 12.45 13.8 14.5 9.75 13.65 7.7 Z"/>
</g>

<g id="Layer0_0_MEMBER_0_MEMBER_10_FILL">
<path fill="#FD742A" fill-opacity="0.6980392156862745" stroke="none" d="
M 18.35 7.5
Q 19.05 5.65 17.95 4.55 17.4 4.05 15.5 3.2 14.6 2.85 13.2 3 11.3 3.25 10.5 3.2 9.25 3.15 8.55 2.3 7.45 1.05 6.9 0.75 5.8 0.05 4.9 0 4.8 0 3.3 0.15 2.15 0.25 1.6 0.95 1.7 1.15 1.55 1.45 1.35 1.75 1.45 1.85 3.3 3.2 5.2 4.6 6.65 5.6 6.15 6.7 5.65 7.75 3.75 8.1 1.9 8.45 0.9 9.15 -0.05 9.85 0 10.7 0.1 11.55 1.75 12.55 3.4 13.6 4.65 13.4 5.45 13.3 8.9 13.45 12.3 13.65 13.45 13.5 16.05 13.25 18.35 7.5 Z"/>
</g>

<g id="Layer0_0_MEMBER_0_MEMBER_11_FILL">
<path fill="#FD742A" fill-opacity="0.6980392156862745" stroke="none" d="
M 11.9 1.85
Q 12.45 0.05 11.35 0 10.55 -0.1 9.8 1.25 8.9 2.9 7.85 3.5 5.7 4.75 3.4 5.3 -0.65 9.05 0.15 12.45 0.7 14.9 2.65 15.95 4.5 16.95 5.35 15.6 5.8 14.85 4.9 12.95 4.05 11.05 4.9 9.7 5.7 8.4 7.4 7.45 9.2 6.35 10 5.3 11.4 3.4 11.9 1.85 Z"/>
</g>

<g id="Layer0_0_MEMBER_0_MEMBER_12_FILL">
<path fill="#FD742A" fill-opacity="0.6980392156862745" stroke="none" d="
M 5.7 1.4
Q 5.55 2.25 2.3 3.9 0.8 4.65 0.5 5.55 0.3 6.15 0.05 8.2 -0.25 9.9 1 10.85 1.9 11.6 3.45 11.8 4.4 11.95 5.2 9.85 6.05 7.2 6.6 6.05 7.75 3.8 7.05 0.95 6.95 -1.2 5.7 1.4 Z"/>
</g>

<g id="Layer0_0_MEMBER_0_MEMBER_13_FILL">
<path fill="#FD742A" fill-opacity="0.6980392156862745" stroke="none" d="
M 10.1 3.05
Q 9.3 2.95 7.85 3.55 6.75 3.95 6 3.3 4.65 2.15 3.65 0
L 2.95 0
Q 1.5 0.8 0.7 2.15 0 3.3 0 3.8 -0.05 4.5 0.9 5.45 1.5 6.05 1.45 7.3 1.4 8.2 2.5 8.4 3.9 8.65 5.35 8.15 6.5 7.75 7.35 7.05 9.5 5.15 9.8 4.85 11.3 3.2 10.1 3.05 Z"/>
</g>

<g id="Layer0_0_MEMBER_0_MEMBER_14_FILL">
<path fill="#FD742A" fill-opacity="0.6980392156862745" stroke="none" d="
M 11.55 1.05
Q 11.7 0.1 10.75 0 9.85 -0.1 8.35 0.6 7.6 0.95 6.15 2.05 5.2 2.8 4.75 2.6 4.25 2.4 4.05 2.35 3.65 2.4 2.95 2.4
L 1.6 4.75 0.4 6.15
Q -0.55 7.45 0.8 7.25 4.05 6.75 6.1 5.2 6.95 4.6 9.35 3.1 11.4 1.8 11.55 1.05 Z"/>
</g>

<g id="Layer0_0_MEMBER_0_MEMBER_15_FILL">
<path fill="#FD742A" fill-opacity="0.6980392156862745" stroke="none" d="
M 1.7 0
Q 0.95 0.2 1.25 1.1 1.05 2.25 0.5 3.05 -0.7 4.65 0.95 4.65 1.75 4.65 2.1 4 2.25 3.7 2.5 2.7 2.75 1.9 1.7 0 Z"/>
</g>

<g id="Layer0_0_MEMBER_0_MEMBER_16_FILL">
<path fill="#FD742A" fill-opacity="0.6980392156862745" stroke="none" d="
M 2.55 0
L 1.45 0.65
Q 0.85 1.1 0.3 2.5 -0.25 3.85 0.1 4.75 1.2 5.4 1.9 4.3 2.15 3.85 3.25 2.5 4.15 1.4 4.15 1 4.15 0.35 2.55 0 Z"/>
</g>

<g id="Layer0_0_MEMBER_1_FILL">
<path fill="#FD8524" stroke="none" d="
M 298.35 227.35
Q 297.55 228.45 297.35 229.15 297.15 229.95 297.95 230.25 298.75 230.55 299.6 230.2 300.25 229.9 300.7 229.15 301.1 228.45 301.05 227.7 301 226.8 300.45 226.3 299.85 225.8 299.15 226.4 298.8 226.8 298.35 227.35 Z"/>
</g>

<g id="Layer0_0_MEMBER_2_FILL">
<path fill="#FFBF5F" stroke="none" d="
M 0.95 3.15
Q 1.25 2.1 2.75 0.45
L 3.1 0.2
Q 2.5 -0.3 1.85 0.3 0.35 1.95 0.05 3.05 -0.15 3.65 0.35 4 0.85 4.35 1.55 4.25 0.75 4 0.95 3.15 Z"/>
</g>

<g id="Layer0_0_MEMBER_3_FILL">
<path fill="#FD8524" stroke="none" d="
M 314.1 248.9
Q 312.05 249.7 311.25 250.55 310.7 251.1 311.35 251.8 311.9 252.4 312.8 252.45 313.55 252.5 314.25 252.05 314.95 251.55 315.25 250.85 315.6 250.05 315.3 249.35 315 248.6 314.1 248.9 Z"/>
</g>

<g id="Layer0_0_MEMBER_4_FILL">
<path fill="#FFBF5F" stroke="none" d="
M 1.05 3.5
Q 0.45 2.8 1 2.25 1.75 1.4 3.85 0.6
L 4.25 0.55
Q 3.9 -0.15 3.1 0.1 1 0.9 0.25 1.75 -0.2 2.2 0.1 2.7 0.35 3.2 1.05 3.5 Z"/>
</g>

<g id="Layer0_0_MEMBER_5_FILL">
<path fill="#FD8524" stroke="none" d="
M 261.3 232.05
Q 260.1 230.2 259.1 229.6 258.4 229.15 257.9 229.9 257.4 230.6 257.55 231.5 257.65 232.2 258.25 232.8 258.85 233.4 259.55 233.55 260.45 233.7 261.05 233.3 261.7 232.85 261.3 232.05 Z"/>
</g>

<g id="Layer0_0_MEMBER_6_FILL">
<path fill="#FFBF5F" stroke="none" d="
M 1.2 1
Q 2.2 1.6 3.4 3.45
L 3.55 3.85
Q 4.2 3.4 3.75 2.6 2.55 0.75 1.55 0.15 1 -0.15 0.55 0.2 0.1 0.6 0 1.3 0.55 0.55 1.2 1 Z"/>
</g>

<g id="Layer0_0_MEMBER_7_FILL">
<path fill="#FD8524" stroke="none" d="
M 267.6 227.2
Q 267.95 228.15 268.3 228.5 268.65 228.95 269.2 228.6 269.7 228.25 269.8 227.6 269.9 227.1 269.65 226.5 269.4 225.95 268.9 225.7 268.35 225.35 267.85 225.5 267.3 225.65 267.35 226.3
L 267.6 227.2 Z"/>
</g>

<g id="Layer0_0_MEMBER_8_FILL">
<path fill="#FFBF5F" stroke="none" d="
M 1.4 2.5
Q 0.85 1.85 0.5 0.3 0.45 0.15 0.5 0 -0.1 0.2 0.05 0.8 0.4 2.35 0.95 3 1.25 3.35 1.65 3.2 2 3.05 2.3 2.6 1.8 2.95 1.4 2.5 Z"/>
</g>

<g id="Layer0_0_MEMBER_9_FILL">
<path fill="#FD8524" stroke="none" d="
M 244.4 244.15
Q 244.85 243.7 244.4 243.1 243.1 241.8 242.2 241.45 241.6 241.25 241.3 241.9 240.95 242.6 241.25 243.25 241.5 243.8 242.05 244.2 242.6 244.6 243.25 244.6 243.95 244.6 244.4 244.15 Z"/>
</g>

<g id="Layer0_0_MEMBER_10_FILL">
<path fill="#FFBF5F" stroke="none" d="
M 0.9 0.8
Q 1.8 1.1 3.05 2.45
L 3.25 2.7
Q 3.7 2.25 3.2 1.7 1.95 0.35 1.05 0.05 0.55 -0.15 0.25 0.3 -0.05 0.65 0 1.25 0.25 0.6 0.9 0.8 Z"/>
</g>

<g id="Layer0_0_MEMBER_11_FILL">
<path fill="#FD8524" stroke="none" d="
M 240.55 257.75
Q 238.85 257.1 237.9 257.15 237.25 257.2 237.25 257.95 237.25 258.7 237.75 259.2 238.15 259.6 238.85 259.75 239.55 259.85 240.1 259.6 240.75 259.3 241 258.75 241.2 258.1 240.55 257.75 Z"/>
</g>

<g id="Layer0_0_MEMBER_12_FILL">
<path fill="#FFBF5F" stroke="none" d="
M 0.8 0.7
Q 1.75 0.65 3.45 1.35
L 3.75 1.55
Q 3.9 0.95 3.3 0.6 1.6 -0.1 0.65 0 0.15 0.05 0.05 0.55 -0.1 1 0.15 1.5 0.15 0.75 0.8 0.7 Z"/>
</g>

<g id="Layer0_0_MEMBER_13_FILL">
<path fill="#FD8524" stroke="none" d="
M 248.1 274.7
Q 247 275.05 246.55 275.4 246.05 275.8 246.45 276.45 246.85 277.05 247.6 277.15 248.2 277.25 248.8 277 249.45 276.7 249.75 276.2 250.15 275.55 250 275 249.85 274.35 249.1 274.45 248.65 274.55 248.1 274.7 Z"/>
</g>

<g id="Layer0_0_MEMBER_14_FILL">
<path fill="#FFBF5F" stroke="none" d="
M 0.85 1.55
Q 1.55 0.95 3.35 0.55
L 3.7 0.55
Q 3.5 -0.1 2.8 0.05 1 0.45 0.3 1 -0.1 1.3 0.05 1.8 0.2 2.2 0.7 2.55 0.35 1.9 0.85 1.55 Z"/>
</g>

<g id="Layer0_0_MEMBER_15_FILL">
<path fill="#FD8524" stroke="none" d="
M 256 290.05
Q 254.85 291.35 254.55 292.15 254.25 293.1 255.2 293.55 256.15 294 257.2 293.6 258.05 293.3 258.6 292.45 259.2 291.6 259.2 290.7 259.2 289.6 258.6 288.95 257.9 288.25 257.05 288.95
L 256 290.05 Z"/>
</g>

<g id="Layer0_0_MEMBER_16_FILL">
<path fill="#FFBF5F" stroke="none" d="
M 1.15 3.75
Q 1.65 2.45 3.6 0.6 3.75 0.45 4.05 0.35 3.4 -0.3 2.5 0.35 0.55 2.25 0.05 3.55 -0.2 4.25 0.4 4.75 0.9 5.15 1.8 5.15 0.8 4.6 1.15 3.75 Z"/>
</g>

<g id="Layer0_0_MEMBER_17_FILL">
<path fill="#FD8524" stroke="none" d="
M 277.55 295.9
Q 277.05 295.85 276.85 296.4
L 276.75 297.2
Q 276.65 298.1 276.75 298.55 276.9 299.05 277.5 298.95 278.05 298.85 278.35 298.35 278.65 298 278.65 297.4 278.6 296.9 278.35 296.45 278 296 277.55 295.9 Z"/>
</g>

<g id="Layer0_0_MEMBER_18_FILL">
<path fill="#FFBF5F" stroke="none" d="
M 0.65 2.4
Q 0.45 1.65 0.7 0.25
L 0.85 0
Q 0.35 -0.1 0.15 0.5 -0.1 1.9 0.1 2.6 0.2 3.05 0.6 3.05 1 3.1 1.35 2.8 0.8 2.9 0.65 2.4 Z"/>
</g>

<g id="Layer0_0_MEMBER_19_FILL">
<path fill="#FD8524" stroke="none" d="
M 280.05 301.3
Q 279.95 302.15 280.05 302.6 280.2 303.15 280.8 303.05 281.35 302.95 281.65 302.45 281.9 302.05 281.9 301.5 281.9 300.9 281.6 300.55 281.25 300.1 280.8 300 280.3 299.9 280.15 300.5
L 280.05 301.3 Z"/>
</g>

<g id="Layer0_0_MEMBER_20_FILL">
<path fill="#FFBF5F" stroke="none" d="
M 0.65 2.4
Q 0.45 1.7 0.7 0.25
L 0.8 0
Q 0.3 0 0.15 0.5 -0.1 1.95 0.1 2.65 0.2 3.05 0.6 3.05 0.95 3.1 1.35 2.8 0.7 2.9 0.65 2.4 Z"/>
</g>

<g id="Layer0_0_MEMBER_21_FILL">
<path fill="#FD8524" stroke="none" d="
M 273.8 301.25
Q 273.45 302.1 273.45 302.55 273.45 303.1 274.05 303.15 274.6 303.2 275.05 302.8 275.4 302.5 275.55 302 275.7 301.45 275.5 301 275.35 300.45 274.9 300.25 274.4 300 274.1 300.5
L 273.8 301.25 Z"/>
</g>

<g id="Layer0_0_MEMBER_22_FILL">
<path fill="#FFBF5F" stroke="none" d="
M 0.6 2.3
Q 0.65 1.55 1.3 0.25
L 1.45 0.05
Q 1 -0.15 0.7 0.35 0.05 1.65 0 2.4 0 2.8 0.4 2.95 0.75 3.05 1.2 2.9 0.6 2.8 0.6 2.3 Z"/>
</g>

<g id="Layer0_0_MEMBER_23_FILL">
<path fill="#FD8524" stroke="none" d="
M 237.25 254.7
Q 236.1 254.25 235.45 254.3 235 254.3 235 254.8 235 255.3 235.35 255.7 235.6 255.95 236.1 256.05 236.6 256.15 236.95 255.95 237.4 255.75 237.55 255.35 237.7 254.95 237.25 254.7 Z"/>
</g>

<g id="Layer0_0_MEMBER_24_FILL">
<path fill="#FFBF5F" stroke="none" d="
M 0.6 0.5
Q 1.2 0.5 2.4 0.95
L 2.6 1.1
Q 2.7 0.65 2.3 0.45 1.1 -0.05 0.45 0 0.1 0.05 0 0.4 -0.05 0.7 0.1 1.05 0.1 0.55 0.6 0.5 Z"/>
</g>

<g id="Layer0_0_MEMBER_25_FILL">
<path fill="#FD8524" stroke="none" d="
M 245.6 283.55
Q 244.9 283.8 244.6 284.1 244.25 284.4 244.55 284.85 244.9 285.2 245.4 285.25 246.35 285.35 246.8 284.45 247 284 246.9 283.65 246.75 283.2 246.25 283.3 245.95 283.4 245.6 283.55 Z"/>
</g>

<g id="Layer0_0_MEMBER_26_FILL">
<path fill="#FFBF5F" stroke="none" d="
M 0.55 1.15
Q 1 0.7 2.2 0.35
L 2.45 0.3
Q 2.25 -0.05 1.8 0 0.6 0.4 0.15 0.85 -0.1 1.05 0.05 1.4 0.15 1.7 0.55 1.85 0.15 1.45 0.55 1.15 Z"/>
</g>

<g id="Layer0_0_MEMBER_27_FILL">
<path fill="#FD8524" stroke="none" d="
M 317.05 281.3
Q 317.75 281.6 318.15 281.6 318.6 281.65 318.65 281.15 318.7 280.65 318.4 280.25 317.8 279.45 316.8 279.8 316.35 279.95 316.15 280.35 315.95 280.75 316.4 281
L 317.05 281.3 Z"/>
</g>

<g id="Layer0_0_MEMBER_28_FILL">
<path fill="#FFBF5F" stroke="none" d="
M 2 0.75
Q 1.35 0.75 0.25 0.15
L 0.1 0
Q -0.15 0.4 0.3 0.7 1.45 1.25 2.1 1.3 2.4 1.3 2.55 0.95 2.65 0.65 2.55 0.3 2.45 0.8 2 0.75 Z"/>
</g>

<g id="Layer0_0_MEMBER_29_FILL">
<path fill="#FD8524" stroke="none" d="
M 316.45 254.25
Q 317.25 254.15 317.6 253.95 318 253.75 317.8 253.3 317.6 252.85 317.15 252.65 316.25 252.3 315.55 253 315.2 253.4 315.2 253.8 315.25 254.25 315.75 254.3
L 316.45 254.25 Z"/>
</g>

<g id="Layer0_0_MEMBER_30_FILL">
<path fill="#FFBF5F" stroke="none" d="
M 2.3 0
Q 2.45 0.45 2.1 0.65 1.5 0.95 0.25 1
L 0 0.95
Q 0.1 1.35 0.55 1.4 1.8 1.4 2.4 1.1 3.05 0.75 2.3 0 Z"/>
</g>

<g id="Layer0_0_MEMBER_31_FILL">
<path fill="#FD8524" stroke="none" d="
M 316.55 265.8
Q 317.35 265.95 317.7 265.9 318.15 265.85 318.15 265.35 318.1 264.85 317.7 264.5 317.4 264.25 316.9 264.2 316.45 264.15 316.1 264.35 315.65 264.6 315.55 265 315.4 265.45 315.85 265.65
L 316.55 265.8 Z"/>
</g>

<g id="Layer0_0_MEMBER_32_FILL">
<path fill="#FFBF5F" stroke="none" d="
M 2.05 0.6
Q 1.4 0.7 0.2 0.3
L 0 0.2
Q -0.1 0.6 0.35 0.8 1.55 1.2 2.2 1.1 2.55 1.05 2.6 0.7 2.65 0.35 2.45 0 2.45 0.55 2.05 0.6 Z"/>
</g>

<g id="Layer0_0_MEMBER_33_FILL">
<path fill="#FD8524" stroke="none" d="
M 313.15 275.05
Q 313.6 275.2 313.85 275.2 314.1 275.25 314.15 274.95 314.2 274.65 314 274.4 313.6 273.95 313 274.1 312.75 274.25 312.65 274.45 312.5 274.7 312.75 274.85
L 313.15 275.05 Z"/>
</g>

<g id="Layer0_0_MEMBER_34_FILL">
<path fill="#FFBF5F" stroke="none" d="
M 1.25 0.45
Q 0.85 0.45 0.15 0.1
L 0.05 0
Q -0.05 0.3 0.2 0.4 0.85 0.75 1.25 0.8 1.75 0.8 1.55 0.15 1.5 0.45 1.25 0.45 Z"/>
</g>

<g id="Layer0_0_MEMBER_35_FILL">
<path fill="#FD8524" stroke="none" d="
M 316.7 278.1
L 317.8 278.5
Q 318.1 278.5 318.1 278.2 318.15 277.9 317.95 277.65 317.55 277.15 317 277.35 316.7 277.5 316.6 277.7 316.45 277.95 316.7 278.1 Z"/>
</g>

<g id="Layer0_0_MEMBER_36_FILL">
<path fill="#FFBF5F" stroke="none" d="
M 1.2 0.45
Q 0.8 0.45 0.1 0.1
L 0 0
Q -0.1 0.3 0.15 0.4 0.85 0.75 1.25 0.8 1.75 0.8 1.5 0.2 1.5 0.55 1.2 0.45 Z"/>
</g>

<g id="Layer0_0_MEMBER_37_FILL">
<path fill="#FD8524" stroke="none" d="
M 319.9 266.45
L 320.95 266.8
Q 321.25 266.85 321.25 266.55 321.3 266.25 321.1 266 320.8 265.5 320.15 265.7 319.85 265.8 319.75 266 319.6 266.3 319.9 266.45 Z"/>
</g>

<g id="Layer0_0_MEMBER_38_FILL">
<path fill="#FFBF5F" stroke="none" d="
M 1.2 0.45
Q 0.8 0.45 0.15 0.1
L 0.05 0
Q -0.1 0.25 0.2 0.4 0.85 0.75 1.25 0.8 1.65 0.8 1.55 0.15 1.5 0.45 1.2 0.45 Z"/>
</g>

<g id="Layer0_0_MEMBER_39_FILL">
<path fill="#FD8524" stroke="none" d="
M 306.55 239.9
L 307.55 239.3
Q 307.75 239.1 307.5 238.85 307.3 238.65 307 238.65 306.45 238.65 306.15 239.2 306.05 239.5 306.15 239.75 306.25 240 306.55 239.9 Z"/>
</g>

<g id="Layer0_0_MEMBER_40_FILL">
<path fill="#FFBF5F" stroke="none" d="
M 1.1 0.45
Q 0.85 0.75 0.15 1.05
L 0 1.05
Q 0.2 1.3 0.4 1.2 1.15 0.9 1.4 0.6 1.7 0.3 1.1 0 1.3 0.25 1.1 0.45 Z"/>
</g>

<g id="Layer0_0_MEMBER_41_FILL">
<path fill="#FD8524" stroke="none" d="
M 310.35 239.35
L 311.3 238.75
Q 311.5 238.55 311.25 238.3 311.05 238.1 310.75 238.1 310.15 238.1 309.95 238.65 309.85 238.95 309.95 239.15 310.05 239.4 310.35 239.35 Z"/>
</g>

<g id="Layer0_0_MEMBER_42_FILL">
<path fill="#FFBF5F" stroke="none" d="
M 1.1 0.45
Q 0.85 0.75 0.1 1
L 0 1.05
Q 0.1 1.3 0.4 1.2 1.1 0.9 1.35 0.6 1.5 0.45 1.4 0.25 1.3 0.1 1.05 0 1.25 0.2 1.1 0.45 Z"/>
</g>

<g id="Layer0_0_MEMBER_43_FILL">
<path fill="#FD8524" stroke="none" d="
M 310.25 236.05
Q 310.85 235.75 311.05 235.5 311.3 235.2 311 234.9 310.75 234.6 310.3 234.6 309.5 234.6 309.15 235.4 309 235.8 309.15 236.1 309.3 236.45 309.7 236.3
L 310.25 236.05 Z"/>
</g>

<g id="Layer0_0_MEMBER_44_FILL">
<path fill="#FFBF5F" stroke="none" d="
M 1.55 0.6
Q 1.15 1 0.2 1.4
L 0 1.45
Q 0.2 1.75 0.55 1.65 1.55 1.25 1.9 0.85 2.3 0.3 1.5 0 1.75 0.35 1.55 0.6 Z"/>
</g>

<g id="Layer0_0_MEMBER_45_FILL">
<path fill="#FD8524" stroke="none" d="
M 302.8 229.35
Q 303.4 228.9 303.6 228.55 303.7 228.3 303.45 228.15 303.2 227.95 302.9 228.05 302.25 228.25 302.25 228.8 302.2 229.1 302.35 229.3 302.5 229.5 302.8 229.35 Z"/>
</g>

<g id="Layer0_0_MEMBER_46_FILL">
<path fill="#FFBF5F" stroke="none" d="
M 0.95 0.4
Q 0.75 0.75 0.15 1.25
L 0 1.3
Q 0.2 1.5 0.45 1.35 1.05 0.85 1.25 0.55 1.4 0.1 0.8 0 1.05 0.15 0.95 0.4 Z"/>
</g>

<g id="Layer0_0_MEMBER_47_FILL">
<path fill="#FD8524" stroke="none" d="
M 252 240.5
L 252.8 241.3
Q 253.05 241.45 253.2 241.2 253.4 240.9 253.3 240.6 253.1 240.05 252.55 239.95 252.25 239.9 252.05 240.05 251.85 240.2 252 240.5 Z"/>
</g>

<g id="Layer0_0_MEMBER_48_FILL">
<path fill="#FFBF5F" stroke="none" d="
M 0.95 0.9
Q 0.65 0.75 0.15 0.1
L 0.1 0
Q -0.05 0.15 0.05 0.4 0.5 1.05 0.85 1.2 1.3 1.4 1.4 0.8 1.2 1 0.95 0.9 Z"/>
</g>

<g id="Layer0_0_MEMBER_49_FILL">
<path fill="#FD8524" stroke="none" d="
M 311.3 291.35
L 311.85 292.35
Q 312.05 292.55 312.3 292.3 312.5 292.15 312.55 291.8 312.55 291.2 312 291 311.7 290.85 311.5 290.95 311.25 291.05 311.3 291.35 Z"/>
</g>

<g id="Layer0_0_MEMBER_50_FILL">
<path fill="#FFBF5F" stroke="none" d="
M 0.7 1.15
Q 0.45 0.85 0.2 0.15
L 0.15 0
Q -0.1 0.1 0 0.4 0.25 1.1 0.55 1.4 0.7 1.55 0.9 1.45 1.05 1.35 1.15 1.1 0.95 1.3 0.7 1.15 Z"/>
</g>

<g id="Layer0_0_MEMBER_51_FILL">
<path fill="#FD8524" stroke="none" d="
M 296.75 292.6
L 297.3 293.6
Q 297.5 293.8 297.75 293.6 297.95 293.4 298 293.1 298 292.45 297.45 292.25 297.2 292.1 296.95 292.2 296.7 292.3 296.75 292.6 Z"/>
</g>

<g id="Layer0_0_MEMBER_52_FILL">
<path fill="#FFBF5F" stroke="none" d="
M 0.75 1.15
Q 0.45 0.85 0.2 0.15
L 0.15 0
Q -0.1 0.1 0 0.4 0.25 1.15 0.55 1.4 0.7 1.55 0.9 1.45 1.05 1.35 1.15 1.15 0.95 1.35 0.75 1.15 Z"/>
</g>

<g id="Layer0_0_MEMBER_53_FILL">
<path fill="#FD8524" stroke="none" d="
M 298.15 296.6
Q 297.7 296.1 297.05 296.6 296.5 297.05 296.4 297.8 296.35 298.45 296.7 299.05 297.05 299.7 297.65 300 298.35 300.35 298.9 300.15 299.6 299.9 299.4 299.15 298.85 297.3 298.15 296.6 Z"/>
</g>

<g id="Layer0_0_MEMBER_54_FILL">
<path fill="#FFBF5F" stroke="none" d="
M 1.05 0.9
Q 1.75 1.6 2.3 3.45
L 2.35 3.8
Q 2.95 3.55 2.8 2.8 2.25 0.95 1.55 0.25 1.2 -0.15 0.7 0.1 0.3 0.3 0 0.85 0.65 0.4 1.05 0.9 Z"/>
</g>

<g id="Layer0_0_MEMBER_55_FILL">
<path fill="#FD8524" stroke="none" d="
M 310.7 288
Q 309.55 286.45 308.7 286 308.1 285.65 307.65 286.3 307.25 286.95 307.45 287.7 307.6 288.3 308.15 288.8 308.65 289.3 309.3 289.35 310.05 289.5 310.55 289.1 311.1 288.65 310.7 288 Z"/>
</g>

<g id="Layer0_0_MEMBER_56_FILL">
<path fill="#FFBF5F" stroke="none" d="
M 1.05 0.85
Q 1.9 1.3 3.05 2.85
L 3.2 3.15
Q 3.7 2.75 3.3 2.05 2.15 0.5 1.3 0.05 0.8 -0.2 0.45 0.2 0.1 0.55 0 1.15 0.45 0.5 1.05 0.85 Z"/>
</g>

<g id="Layer0_0_MEMBER_57_FILL">
<path fill="#FD8524" stroke="none" d="
M 255 231
Q 254.05 229.55 253.3 229.1 252.75 228.8 252.35 229.35 252 229.9 252.1 230.6 252.2 231.15 252.65 231.6 253.15 232.1 253.7 232.15 254.35 232.3 254.85 232 255.35 231.65 255 231 Z"/>
</g>

<g id="Layer0_0_MEMBER_58_FILL">
<path fill="#FFBF5F" stroke="none" d="
M 0.95 0.75
Q 1.7 1.2 2.65 2.65
L 2.75 2.95
Q 3.2 2.6 2.9 2 1.95 0.55 1.2 0.1 0.8 -0.15 0.45 0.15 0.1 0.45 0 1 0.45 0.5 0.95 0.75 Z"/>
</g>

<g id="Layer0_0_MEMBER_59_FILL">
<path fill="#FD8524" stroke="none" d="
M 281.35 227.4
Q 281.4 226.4 281.2 225.95 281.05 225.6 280.65 225.75 280.3 225.85 280.1 226.25 279.95 226.5 280 226.9 280.1 227.3 280.3 227.5 280.6 227.8 280.9 227.8 281.3 227.8 281.35 227.4 Z"/>
</g>

<g id="Layer0_0_MEMBER_60_FILL">
<path fill="#FFBF5F" stroke="none" d="
M 0.5 0.45
Q 0.7 0.9 0.65 1.9
L 0.6 2.05
Q 0.95 2.05 1 1.7 1.05 0.7 0.85 0.2 0.75 -0.05 0.45 0 0.2 0 0 0.2 0.35 0.1 0.5 0.45 Z"/>
</g>

<g id="Layer0_0_MEMBER_61_FILL">
<path fill="#FD8524" stroke="none" d="
M 283.9 224.9
Q 284.35 223.7 284.3 223 284.25 222.55 283.75 222.55 283.2 222.55 282.85 222.95 282.15 223.65 282.55 224.6 282.8 225.05 283.2 225.2 283.65 225.4 283.9 224.9 Z"/>
</g>

<g id="Layer0_0_MEMBER_62_FILL">
<path fill="#FFBF5F" stroke="none" d="
M 0.55 0.6
Q 0.6 1.3 0.1 2.5
L 0 2.7
Q 0.4 2.85 0.65 2.4 1.1 1.15 1.05 0.5 1 0.15 0.7 0.05 0.35 -0.05 0 0.15 0.5 0.15 0.55 0.6 Z"/>
</g>

<g id="Layer0_0_MEMBER_63_FILL">
<path fill="url(#Gradient_1)" stroke="none" d="
M 104.2 61.8
Q 99 55 90.85 52.6 91.9 56.4 91.9 59.9 91.9 70.65 84.3 78.2 76.7 85.8 65.95 85.8 62.25 85.8 58.7 84.8 61.1 92.95 67.9 98.15 74.85 103.45 83.55 103.45 94.3 103.45 101.9 95.85 109.5 88.25 109.5 77.5 109.5 68.75 104.2 61.8 Z"/>
</g>
</defs>

<g transform="matrix( 10, 0, 0, 10, -2276.5,-2116.5) ">
<use xlink:href="#Layer0_0_MEMBER_0_MEMBER_0_FILL"/>
</g>

<g transform="matrix( 10, 0, 0, 10, -2276.5,-2116.5) ">
<use xlink:href="#Layer0_0_MEMBER_0_MEMBER_1_MEMBER_0_FILL"/>
</g>

<g transform="matrix( 10, 0, 0, 10, -2276.5,-2116.5) ">
<use xlink:href="#Layer0_0_MEMBER_0_MEMBER_1_MEMBER_1_FILL"/>
</g>

<g transform="matrix( 10, 0, 0, 10, -2276.5,-2116.5) ">
<use xlink:href="#Layer0_0_MEMBER_0_MEMBER_1_MEMBER_2_FILL"/>
</g>

<g transform="matrix( 10, 0, 0, 10, -2276.5,-2116.5) ">
<use xlink:href="#Layer0_0_MEMBER_0_MEMBER_1_MEMBER_3_FILL"/>
</g>

<g transform="matrix( 10, 0, 0, 10, -2276.5,-2116.5) ">
<use xlink:href="#Layer0_0_MEMBER_0_MEMBER_1_MEMBER_4_FILL"/>
</g>

<g transform="matrix( 10, 0, 0, 10, -2276.5,-2116.5) ">
<use xlink:href="#Layer0_0_MEMBER_0_MEMBER_1_MEMBER_5_FILL"/>
</g>

<g transform="matrix( 10, 0, 0, 10, 315.5,293) ">
<use xlink:href="#Layer0_0_MEMBER_0_MEMBER_2_FILL"/>
</g>

<g transform="matrix( 10, 0, 0, 10, 459,262.5) ">
<use xlink:href="#Layer0_0_MEMBER_0_MEMBER_3_FILL"/>
</g>

<g transform="matrix( 10, 0, 0, 10, 343.5,352.5) ">
<use xlink:href="#Layer0_0_MEMBER_0_MEMBER_4_FILL"/>
</g>

<g transform="matrix( 10, 0, 0, 10, 422.5,324.5) ">
<use xlink:href="#Layer0_0_MEMBER_0_MEMBER_5_FILL"/>
</g>

<g transform="matrix( 10, 0, 0, 10, 292.5,440.5) ">
<use xlink:href="#Layer0_0_MEMBER_0_MEMBER_6_FILL"/>
</g>

<g transform="matrix( 10, 0, 0, 10, 314,547.5) ">
<use xlink:href="#Layer0_0_MEMBER_0_MEMBER_7_FILL"/>
</g>

<g transform="matrix( 10, 0, 0, 10, 469.5,432.5) ">
<use xlink:href="#Layer0_0_MEMBER_0_MEMBER_8_FILL"/>
</g>

<g transform="matrix( 10, 0, 0, 10, 605.5,311) ">
<use xlink:href="#Layer0_0_MEMBER_0_MEMBER_9_FILL"/>
</g>

<g transform="matrix( 10, 0, 0, 10, 431,617.5) ">
<use xlink:href="#Layer0_0_MEMBER_0_MEMBER_10_FILL"/>
</g>

<g transform="matrix( 10, 0, 0, 10, 647,458.5) ">
<use xlink:href="#Layer0_0_MEMBER_0_MEMBER_11_FILL"/>
</g>

<g transform="matrix( 10, 0, 0, 10, 709,502) ">
<use xlink:href="#Layer0_0_MEMBER_0_MEMBER_12_FILL"/>
</g>

<g transform="matrix( 10, 0, 0, 10, 607.5,602) ">
<use xlink:href="#Layer0_0_MEMBER_0_MEMBER_13_FILL"/>
</g>

<g transform="matrix( 10, 0, 0, 10, 594,679) ">
<use xlink:href="#Layer0_0_MEMBER_0_MEMBER_14_FILL"/>
</g>

<g transform="matrix( 10, 0, 0, 10, 742,403) ">
<use xlink:href="#Layer0_0_MEMBER_0_MEMBER_15_FILL"/>
</g>

<g transform="matrix( 10, 0, 0, 10, 712,626) ">
<use xlink:href="#Layer0_0_MEMBER_0_MEMBER_16_FILL"/>
</g>

<g transform="matrix( 10, 0, 0, 10, -2276.5,-2116.5) ">
<use xlink:href="#Layer0_0_MEMBER_1_FILL"/>
</g>

<g transform="matrix( 10, 0, 0, 10, 696.5,144) ">
<use xlink:href="#Layer0_0_MEMBER_2_FILL"/>
</g>

<g transform="matrix( 10, 0, 0, 10, -2276.5,-2116.5) ">
<use xlink:href="#Layer0_0_MEMBER_3_FILL"/>
</g>

<g transform="matrix( 10, 0, 0, 10, 834,371) ">
<use xlink:href="#Layer0_0_MEMBER_4_FILL"/>
</g>

<g transform="matrix( 10, 0, 0, 10, -2276.5,-2116.5) ">
<use xlink:href="#Layer0_0_MEMBER_5_FILL"/>
</g>

<g transform="matrix( 10, 0, 0, 10, 299.3,177.8) ">
<use xlink:href="#Layer0_0_MEMBER_6_FILL"/>
</g>

<g transform="matrix( 10, 0, 0, 10, -2276.5,-2116.5) ">
<use xlink:href="#Layer0_0_MEMBER_7_FILL"/>
</g>

<g transform="matrix( 10, 0, 0, 10, 396.5,138.5) ">
<use xlink:href="#Layer0_0_MEMBER_8_FILL"/>
</g>

<g transform="matrix( 10, 0, 0, 10, -2276.5,-2116.5) ">
<use xlink:href="#Layer0_0_MEMBER_9_FILL"/>
</g>

<g transform="matrix( 10, 0, 0, 10, 135.5,297.5) ">
<use xlink:href="#Layer0_0_MEMBER_10_FILL"/>
</g>

<g transform="matrix( 10, 0, 0, 10, -2276.5,-2116.5) ">
<use xlink:href="#Layer0_0_MEMBER_11_FILL"/>
</g>

<g transform="matrix( 10, 0, 0, 10, 96.2,454.85) ">
<use xlink:href="#Layer0_0_MEMBER_12_FILL"/>
</g>

<g transform="matrix( 10, 0, 0, 10, -2276.5,-2116.5) ">
<use xlink:href="#Layer0_0_MEMBER_13_FILL"/>
</g>

<g transform="matrix( 10, 0, 0, 10, 186.5,627) ">
<use xlink:href="#Layer0_0_MEMBER_14_FILL"/>
</g>

<g transform="matrix( 10, 0, 0, 10, -2276.5,-2116.5) ">
<use xlink:href="#Layer0_0_MEMBER_15_FILL"/>
</g>

<g transform="matrix( 10, 0, 0, 10, 268.5,769) ">
<use xlink:href="#Layer0_0_MEMBER_16_FILL"/>
</g>

<g transform="matrix( 10, 0, 0, 10, -2276.5,-2116.5) ">
<use xlink:href="#Layer0_0_MEMBER_17_FILL"/>
</g>

<g transform="matrix( 10, 0, 0, 10, 490,842.5) ">
<use xlink:href="#Layer0_0_MEMBER_18_FILL"/>
</g>

<g transform="matrix( 10, 0, 0, 10, -2276.5,-2116.5) ">
<use xlink:href="#Layer0_0_MEMBER_19_FILL"/>
</g>

<g transform="matrix( 10, 0, 0, 10, 523,883.5) ">
<use xlink:href="#Layer0_0_MEMBER_20_FILL"/>
</g>

<g transform="matrix( 10, 0, 0, 10, -2276.5,-2116.5) ">
<use xlink:href="#Layer0_0_MEMBER_21_FILL"/>
</g>

<g transform="matrix( 10, 0, 0, 10, 457.5,885) ">
<use xlink:href="#Layer0_0_MEMBER_22_FILL"/>
</g>

<g transform="matrix( 10, 0, 0, 10, -2276.5,-2116.5) ">
<use xlink:href="#Layer0_0_MEMBER_23_FILL"/>
</g>

<g transform="matrix( 10, 0, 0, 10, 73.2,425.85) ">
<use xlink:href="#Layer0_0_MEMBER_24_FILL"/>
</g>

<g transform="matrix( 10, 0, 0, 10, -2276.5,-2116.5) ">
<use xlink:href="#Layer0_0_MEMBER_25_FILL"/>
</g>

<g transform="matrix( 10, 0, 0, 10, 168,716) ">
<use xlink:href="#Layer0_0_MEMBER_26_FILL"/>
</g>

<g transform="matrix( 10, 0, 0, 10, -2276.5,-2116.5) ">
<use xlink:href="#Layer0_0_MEMBER_27_FILL"/>
</g>

<g transform="matrix( 10, 0, 0, 10, 884,687) ">
<use xlink:href="#Layer0_0_MEMBER_28_FILL"/>
</g>

<g transform="matrix( 10, 0, 0, 10, -2276.5,-2116.5) ">
<use xlink:href="#Layer0_0_MEMBER_29_FILL"/>
</g>

<g transform="matrix( 10, 0, 0, 10, 875.5,412.5) ">
<use xlink:href="#Layer0_0_MEMBER_30_FILL"/>
</g>

<g transform="matrix( 10, 0, 0, 10, -2276.5,-2116.5) ">
<use xlink:href="#Layer0_0_MEMBER_31_FILL"/>
</g>

<g transform="matrix( 10, 0, 0, 10, 878.5,532) ">
<use xlink:href="#Layer0_0_MEMBER_32_FILL"/>
</g>

<g transform="matrix( 10, 0, 0, 10, -2276.5,-2116.5) ">
<use xlink:href="#Layer0_0_MEMBER_33_FILL"/>
</g>

<g transform="matrix( 10, 0, 0, 10, 849,628) ">
<use xlink:href="#Layer0_0_MEMBER_34_FILL"/>
</g>

<g transform="matrix( 10, 0, 0, 10, -2276.5,-2116.5) ">
<use xlink:href="#Layer0_0_MEMBER_35_FILL"/>
</g>

<g transform="matrix( 10, 0, 0, 10, 889,660.5) ">
<use xlink:href="#Layer0_0_MEMBER_36_FILL"/>
</g>

<g transform="matrix( 10, 0, 0, 10, -2276.5,-2116.5) ">
<use xlink:href="#Layer0_0_MEMBER_37_FILL"/>
</g>

<g transform="matrix( 10, 0, 0, 10, 920.5,544) ">
<use xlink:href="#Layer0_0_MEMBER_38_FILL"/>
</g>

<g transform="matrix( 10, 0, 0, 10, -2276.5,-2116.5) ">
<use xlink:href="#Layer0_0_MEMBER_39_FILL"/>
</g>

<g transform="matrix( 10, 0, 0, 10, 785,270.5) ">
<use xlink:href="#Layer0_0_MEMBER_40_FILL"/>
</g>

<g transform="matrix( 10, 0, 0, 10, -2276.5,-2116.5) ">
<use xlink:href="#Layer0_0_MEMBER_41_FILL"/>
</g>

<g transform="matrix( 10, 0, 0, 10, 823.1,264.9) ">
<use xlink:href="#Layer0_0_MEMBER_42_FILL"/>
</g>

<g transform="matrix( 10, 0, 0, 10, -2276.5,-2116.5) ">
<use xlink:href="#Layer0_0_MEMBER_43_FILL"/>
</g>

<g transform="matrix( 10, 0, 0, 10, 815.1,230.3) ">
<use xlink:href="#Layer0_0_MEMBER_44_FILL"/>
</g>

<g transform="matrix( 10, 0, 0, 10, -2276.5,-2116.5) ">
<use xlink:href="#Layer0_0_MEMBER_45_FILL"/>
</g>

<g transform="matrix( 10, 0, 0, 10, 747,164) ">
<use xlink:href="#Layer0_0_MEMBER_46_FILL"/>
</g>

<g transform="matrix( 10, 0, 0, 10, -2276.5,-2116.5) ">
<use xlink:href="#Layer0_0_MEMBER_47_FILL"/>
</g>

<g transform="matrix( 10, 0, 0, 10, 242.5,284.5) ">
<use xlink:href="#Layer0_0_MEMBER_48_FILL"/>
</g>

<g transform="matrix( 10, 0, 0, 10, -2276.5,-2116.5) ">
<use xlink:href="#Layer0_0_MEMBER_49_FILL"/>
</g>

<g transform="matrix( 10, 0, 0, 10, 836.5,793) ">
<use xlink:href="#Layer0_0_MEMBER_50_FILL"/>
</g>

<g transform="matrix( 10, 0, 0, 10, -2276.5,-2116.5) ">
<use xlink:href="#Layer0_0_MEMBER_51_FILL"/>
</g>

<g transform="matrix( 10, 0, 0, 10, 691,805.5) ">
<use xlink:href="#Layer0_0_MEMBER_52_FILL"/>
</g>

<g transform="matrix( 10, 0, 0, 10, -2276.5,-2116.5) ">
<use xlink:href="#Layer0_0_MEMBER_53_FILL"/>
</g>

<g transform="matrix( 10, 0, 0, 10, 690,847) ">
<use xlink:href="#Layer0_0_MEMBER_54_FILL"/>
</g>

<g transform="matrix( 10, 0, 0, 10, -2276.5,-2116.5) ">
<use xlink:href="#Layer0_0_MEMBER_55_FILL"/>
</g>

<g transform="matrix( 10, 0, 0, 10, 798,742.5) ">
<use xlink:href="#Layer0_0_MEMBER_56_FILL"/>
</g>

<g transform="matrix( 10, 0, 0, 10, -2276.5,-2116.5) ">
<use xlink:href="#Layer0_0_MEMBER_57_FILL"/>
</g>

<g transform="matrix( 10, 0, 0, 10, 244.8,173.3) ">
<use xlink:href="#Layer0_0_MEMBER_58_FILL"/>
</g>

<g transform="matrix( 10, 0, 0, 10, -2276.5,-2116.5) ">
<use xlink:href="#Layer0_0_MEMBER_59_FILL"/>
</g>

<g transform="matrix( 10, 0, 0, 10, 527,141) ">
<use xlink:href="#Layer0_0_MEMBER_60_FILL"/>
</g>

<g transform="matrix( 10, 0, 0, 10, -2276.5,-2116.5) ">
<use xlink:href="#Layer0_0_MEMBER_61_FILL"/>
</g>

<g transform="matrix( 10, 0, 0, 10, 556,108.6) ">
<use xlink:href="#Layer0_0_MEMBER_62_FILL"/>
</g>

<g transform="matrix( 10, 0, 0, 10, -298,-260.5) ">
<use xlink:href="#Layer0_0_MEMBER_63_FILL"/>
</g>
</svg>
